HIERARCHY
ROOT Hips
{
	OFFSET 0.000000 35.082581 0.000000
	CHANNELS 6 Xposition Yposition Zposition Xrotation Yrotation Zrotation 
	JOINT Spine
	{
		OFFSET 0.000000 6.876099 0.125700
		CHANNELS 3 Xrotation Yrotation Zrotation
		JOINT Spine1
		{
			OFFSET 0.000000 5.730043 0.104720
			CHANNELS 3 Xrotation Yrotation Zrotation
			JOINT Spine1_split
			{
				OFFSET 0.000000 5.730043 0.104720
				CHANNELS 3 Xrotation Yrotation Zrotation
				JOINT Spine2
				{
					OFFSET 0.000000 5.730043 0.104720
					CHANNELS 3 Xrotation Yrotation Zrotation
					JOINT Neck
					{
						OFFSET 0.000000 10.314075 0.188496
						CHANNELS 3 Xrotation Yrotation Zrotation
						JOINT Head
						{
							OFFSET 0.000000 7.643700 -2.377400
							CHANNELS 3 Xrotation Yrotation Zrotation
							JOINT HeadTop_End
							{
								OFFSET 0.000000 43.788605 -13.619600
								CHANNELS 3 Xrotation Yrotation Zrotation
								End Site
								{
									OFFSET 0.000000 0.000000 0.000000
								}
							}
						}
					}
					JOINT LeftShoulder
					{
						OFFSET 2.196100 4.412489 0.087492
						CHANNELS 3 Xrotation Yrotation Zrotation
						JOINT LeftShoulder_split
						{
							OFFSET 2.196100 4.412489 0.087492
							CHANNELS 3 Xrotation Yrotation Zrotation
							JOINT LeftArm
							{
								OFFSET 8.771219 -2.981674 -0.026999
								CHANNELS 3 Xrotation Yrotation Zrotation
								JOINT LeftForeArm
								{
									OFFSET 8.512804 0.000000 -0.000000
									CHANNELS 3 Xrotation Yrotation Zrotation
									JOINT LeftHand
									{
										OFFSET 18.484802 0.000000 -0.000000
										CHANNELS 3 Xrotation Yrotation Zrotation
										JOINT LeftHandThumb1
										{
											OFFSET 2.499420 -1.158070 2.653252
											CHANNELS 3 Xrotation Yrotation Zrotation
											JOINT LeftHandThumb2
											{
												OFFSET 2.370079 -1.368366 1.368366
												CHANNELS 3 Xrotation Yrotation Zrotation
												JOINT LeftHandThumb3
												{
													OFFSET 2.676727 -1.545410 1.545409
													CHANNELS 3 Xrotation Yrotation Zrotation
													JOINT LeftHandThumb4
													{
														OFFSET 1.692226 -0.977005 0.977007
														CHANNELS 3 Xrotation Yrotation Zrotation
														End Site
														{
															OFFSET 0.000000 0.000000 0.000000
														}
													}
												}
											}
										}
										JOINT LeftHandIndex1
										{
											OFFSET 7.924831 -0.457527 2.345128
											CHANNELS 3 Xrotation Yrotation Zrotation
											JOINT LeftHandIndex2
											{
												OFFSET 3.643303 0.000000 0.000000
												CHANNELS 3 Xrotation Yrotation Zrotation
												JOINT LeftHandIndex3
												{
													OFFSET 3.810799 0.000000 0.000000
													CHANNELS 3 Xrotation Yrotation Zrotation
													JOINT LeftHandIndex4
													{
														OFFSET 2.403702 0.000000 0.000000
														CHANNELS 3 Xrotation Yrotation Zrotation
														End Site
														{
															OFFSET 0.000000 0.000000 0.000000
														}
													}
												}
											}
										}
										JOINT LeftHandMiddle1
										{
											OFFSET 8.563995 0.000000 -0.000000
											CHANNELS 3 Xrotation Yrotation Zrotation
											JOINT LeftHandMiddle2
											{
												OFFSET 3.861618 0.000000 0.000000
												CHANNELS 3 Xrotation Yrotation Zrotation
												JOINT LeftHandMiddle3
												{
													OFFSET 3.701603 0.000000 0.000000
													CHANNELS 3 Xrotation Yrotation Zrotation
													JOINT LeftHandMiddle4
													{
														OFFSET 2.322544 0.000000 0.000000
														CHANNELS 3 Xrotation Yrotation Zrotation
														End Site
														{
															OFFSET 0.000000 0.000000 0.000000
														}
													}
												}
											}
										}
										JOINT LeftHandRing1
										{
											OFFSET 8.426460 -0.424637 -3.286992
											CHANNELS 3 Xrotation Yrotation Zrotation
											JOINT LeftHandRing2
											{
												OFFSET 3.126408 0.000000 0.000000
												CHANNELS 3 Xrotation Yrotation Zrotation
												JOINT LeftHandRing3
												{
													OFFSET 3.085026 0.000000 0.000000
													CHANNELS 3 Xrotation Yrotation Zrotation
													JOINT LeftHandRing4
													{
														OFFSET 1.644005 0.000000 0.000000
														CHANNELS 3 Xrotation Yrotation Zrotation
														End Site
														{
															OFFSET 0.000000 0.000000 0.000000
														}
													}
												}
											}
										}
									}
								}
							}
						}
					}
					JOINT RightShoulder
					{
						OFFSET -2.196100 4.412496 0.070690
						CHANNELS 3 Xrotation Yrotation Zrotation
						JOINT RightShoulder_split
						{
							OFFSET -2.196100 4.412496 0.070690
							CHANNELS 3 Xrotation Yrotation Zrotation
							JOINT RightArm
							{
								OFFSET -8.771282 -2.981682 -0.094208
								CHANNELS 3 Xrotation Yrotation Zrotation
								JOINT RightForeArm
								{
									OFFSET -8.494598 0.000000 0.000000
									CHANNELS 3 Xrotation Yrotation Zrotation
									JOINT RightHand
									{
										OFFSET -18.483803 0.000000 0.000001
										CHANNELS 3 Xrotation Yrotation Zrotation
										JOINT RightHandThumb1
										{
											OFFSET -2.527351 -1.008072 2.575253
											CHANNELS 3 Xrotation Yrotation Zrotation
											JOINT RightHandThumb2
											{
												OFFSET -2.321518 -1.340328 1.340329
												CHANNELS 3 Xrotation Yrotation Zrotation
												JOINT RightHandThumb3
												{
													OFFSET -2.657753 -1.534454 1.534455
													CHANNELS 3 Xrotation Yrotation Zrotation
													JOINT RightHandThumb4
													{
														OFFSET -1.807510 -1.043568 1.043567
														CHANNELS 3 Xrotation Yrotation Zrotation
														End Site
														{
															OFFSET 0.000000 0.000000 0.000000
														}
													}
												}
											}
										}
										JOINT RightHandIndex1
										{
											OFFSET -8.811420 0.015533 2.887987
											CHANNELS 3 Xrotation Yrotation Zrotation
											JOINT RightHandIndex2
											{
												OFFSET -3.537502 0.000000 0.000000
												CHANNELS 3 Xrotation Yrotation Zrotation
												JOINT RightHandIndex3
												{
													OFFSET -3.356201 0.000000 0.000000
													CHANNELS 3 Xrotation Yrotation Zrotation
													JOINT RightHandIndex4
													{
														OFFSET -1.933098 0.000000 0.000000
														CHANNELS 3 Xrotation Yrotation Zrotation
														End Site
														{
															OFFSET 0.000000 0.000000 0.000000
														}
													}
												}
											}
										}
										JOINT RightHandMiddle1
										{
											OFFSET -8.178135 0.000000 0.000000
											CHANNELS 3 Xrotation Yrotation Zrotation
											JOINT RightHandMiddle2
											{
												OFFSET -3.901302 0.000000 0.000000
												CHANNELS 3 Xrotation Yrotation Zrotation
												JOINT RightHandMiddle3
												{
													OFFSET -3.909599 0.000000 0.000000
													CHANNELS 3 Xrotation Yrotation Zrotation
													JOINT RightHandMiddle4
													{
														OFFSET -2.376003 0.000000 0.000000
														CHANNELS 3 Xrotation Yrotation Zrotation
														End Site
														{
															OFFSET 0.000000 0.000000 0.000000
														}
													}
												}
											}
										}
										JOINT RightHandRing1
										{
											OFFSET -7.559013 0.014137 -2.865403
											CHANNELS 3 Xrotation Yrotation Zrotation
											JOINT RightHandRing2
											{
												OFFSET -3.449306 0.000000 0.000000
												CHANNELS 3 Xrotation Yrotation Zrotation
												JOINT RightHandRing3
												{
													OFFSET -3.362106 0.000000 0.000000
													CHANNELS 3 Xrotation Yrotation Zrotation
													JOINT RightHandRing4
													{
														OFFSET -2.076401 0.000000 0.000000
														CHANNELS 3 Xrotation Yrotation Zrotation
														End Site
														{
															OFFSET 0.000000 0.000000 0.000000
														}
													}
												}
											}
										}
									}
								}
							}
						}
					}
				}
			}
		}
	}
	JOINT LeftUpLeg
	{
		OFFSET 10.205400 -3.823500 0.155100
		CHANNELS 3 Xrotation Yrotation Zrotation
		JOINT LeftLeg
		{
			OFFSET 0.708757 -12.982077 0.567790
			CHANNELS 3 Xrotation Yrotation Zrotation
			JOINT LeftFoot
			{
				OFFSET -0.708756 -10.717838 -2.184338
				CHANNELS 3 Xrotation Yrotation Zrotation
				JOINT LeftToeBase
				{
					OFFSET 0.108149 -7.191104 7.560241
					CHANNELS 3 Xrotation Yrotation Zrotation
					JOINT LeftToe_End
					{
						OFFSET 0.070230 0.081724 4.490308
						CHANNELS 3 Xrotation Yrotation Zrotation
						End Site
						{
							OFFSET 0.000000 0.000000 0.000000
						}
					}
				}
			}
		}
	}
	JOINT RightUpLeg
	{
		OFFSET -10.205400 -3.823500 0.005500
		CHANNELS 3 Xrotation Yrotation Zrotation
		JOINT RightLeg
		{
			OFFSET -0.708756 -12.982134 0.610632
			CHANNELS 3 Xrotation Yrotation Zrotation
			JOINT RightFoot
			{
				OFFSET 0.708754 -10.717769 -1.945823
				CHANNELS 3 Xrotation Yrotation Zrotation
				JOINT RightToeBase
				{
					OFFSET -0.108140 -7.191069 7.372968
					CHANNELS 3 Xrotation Yrotation Zrotation
					JOINT RightToe_End
					{
						OFFSET -0.070227 0.081735 4.479403
						CHANNELS 3 Xrotation Yrotation Zrotation
						End Site
						{
							OFFSET 0.000000 0.000000 0.000000
						}
					}
				}
			}
		}
	}
}
MOTION
Frames: 6
Frame Time: 0.016667
-0.825002 35.133255 3.884500 -23.117801 -6.348767 -1.407822 7.686285 -0.324556 -0.876887 15.374078 -1.676407 -0.551058 0.000000 0.000000 0.000000 15.374081 -1.676407 -0.551058 -11.803039 2.538411 0.513533 -20.543594 1.060036 1.922752 0.000001 0.000000 -0.000000 -0.117983 -1.799425 36.289335 0.000000 0.000000 0.000000 -52.783231 -25.523889 -11.661704 -14.599478 -27.801862 2.187897 12.414557 -2.032454 43.220474 -11.360203 -10.015405 28.397667 19.621098 23.755272 -10.341698 -0.000005 -0.000002 0.000007 -0.000002 0.000001 -0.000000 -7.847202 -3.444986 -67.091227 -4.891799 2.725197 -36.316474 -0.000001 0.000001 -0.000011 0.000000 -0.000000 -0.000001 -10.129934 -3.870845 -67.774273 -1.764496 1.724515 -28.158841 0.000000 0.000002 0.000006 -0.000000 0.000001 0.000000 -15.177621 7.295112 -70.201641 7.766213 -0.421192 -31.520053 0.000000 0.000001 0.000004 0.000001 0.000000 0.000001 9.813670 24.196311 -37.946072 0.000000 0.000000 0.000000 -46.242218 23.161310 -4.673679 -22.075467 26.224117 3.020022 0.654843 10.544260 -45.154589 15.333560 1.500906 -10.491450 -10.396760 -3.067645 -10.223935 0.000003 0.000000 0.000006 -0.000001 -0.000000 -0.000000 0.919868 3.496433 64.452206 1.728450 9.563283 38.865972 0.000004 -0.000003 0.000006 0.000000 0.000001 0.000001 -6.652418 -3.924330 64.485708 9.406014 5.988776 38.253649 0.000000 0.000001 -0.000001 -0.000000 0.000001 0.000000 -5.546327 1.390181 64.784795 0.228435 -1.796024 39.151611 0.000000 0.000004 0.000012 0.000000 -0.000000 0.000001 -78.433637 6.492381 36.743160 135.287251 -30.929402 -2.597691 -48.484911 -9.903299 19.057090 -46.495594 -2.668619 -1.962168 0.000002 -0.000001 -0.000000 -118.823626 -4.932514 -32.440472 140.490339 16.050198 -2.156930 -26.657149 0.631188 -2.418725 -38.848525 6.007868 10.675293 0.000001 -0.000001 0.000000 
-0.859218 35.041000 3.934102 -22.833450 -6.333640 -1.394969 7.635999 -0.292995 -0.857072 15.273322 -1.606443 -0.492266 0.000000 0.000000 0.000000 15.273324 -1.606442 -0.492266 -14.761854 2.627872 0.599233 -18.644384 1.325023 1.660059 0.000000 -0.000000 -0.000000 -0.463110 -1.070554 36.646355 0.000000 0.000000 0.000000 -52.830864 -25.294846 -12.145880 -14.734617 -28.465326 2.458224 11.791901 -2.162981 40.907594 -11.360215 -10.015425 28.397686 19.621105 23.755254 -10.341691 -0.000006 -0.000004 0.000002 -0.000003 -0.000002 0.000001 -7.847217 -3.444998 -67.091227 -4.891830 2.725208 -36.316485 -0.000001 0.000000 -0.000012 0.000000 0.000000 0.000000 -10.129922 -3.870869 -67.774273 -1.764529 1.724341 -28.158823 -0.000000 0.000002 0.000008 -0.000001 0.000001 0.000001 -15.177623 7.295077 -70.201668 7.766211 -0.421212 -31.520073 0.000000 0.000002 0.000004 -0.000000 0.000000 -0.000001 9.574070 23.264854 -38.203444 0.000000 0.000000 0.000000 -46.458192 23.286039 -4.045063 -21.711684 26.550170 2.475545 0.014064 10.416160 -45.533343 15.333560 1.500880 -10.491463 -10.396764 -3.067642 -10.223937 0.000003 -0.000001 0.000008 -0.000002 0.000005 0.000002 0.919888 3.496431 64.452179 1.728504 9.563347 38.865969 0.000004 -0.000005 0.000005 0.000000 0.000000 0.000000 -6.652433 -3.924336 64.485687 9.406023 5.988739 38.253646 0.000000 0.000002 -0.000002 -0.000001 0.000000 0.000002 -5.546339 1.390176 64.784781 0.228521 -1.795959 39.151628 0.000000 0.000000 0.000010 -0.000000 -0.000001 -0.000002 -78.638174 6.062591 36.781282 135.627531 -31.234609 -2.741451 -49.023389 -9.951443 19.014482 -46.287564 -2.741783 -2.033643 -0.000000 0.000002 -0.000001 -119.179725 -4.741374 -31.956806 140.676994 16.142908 -2.116741 -27.153518 0.492050 -2.136180 -38.485179 5.777102 10.443435 -0.000002 0.000003 -0.000002 
-0.884703 34.993473 3.967379 -22.435964 -6.297900 -1.397880 7.519188 -0.265994 -0.826645 15.039629 -1.534572 -0.418301 0.000000 0.000000 0.000000 15.039643 -1.534573 -0.418302 -17.769909 2.710622 0.790330 -16.597921 1.605598 1.335111 0.000000 0.000000 0.000000 -0.794081 -0.411285 37.037814 0.000000 0.000000 0.000000 -53.107367 -25.119643 -13.105110 -14.758159 -28.996670 2.732918 11.472775 -2.333879 38.824653 -11.360211 -10.015410 28.397693 19.621098 23.755263 -10.341703 -0.000004 -0.000003 0.000004 -0.000003 0.000005 -0.000002 -7.847231 -3.444981 -67.091254 -4.891859 2.725241 -36.316457 -0.000001 0.000000 -0.000012 -0.000000 -0.000000 -0.000000 -10.129914 -3.870903 -67.774273 -1.764556 1.724212 -28.158823 -0.000000 0.000003 0.000007 0.000001 0.000001 0.000001 -15.177594 7.295042 -70.201668 7.766214 -0.421207 -31.520049 -0.000001 0.000002 0.000002 0.000000 -0.000001 0.000000 9.273481 22.311026 -38.387907 0.000000 0.000000 0.000000 -46.870913 23.501718 -2.942155 -21.212577 27.007451 1.920330 -0.431585 10.106992 -45.634857 15.333549 1.500912 -10.491447 -10.396759 -3.067642 -10.223936 0.000004 0.000002 0.000008 0.000002 0.000001 0.000002 0.919888 3.496469 64.452206 1.728565 9.563381 38.865938 0.000002 -0.000003 0.000008 0.000000 0.000000 0.000002 -6.652427 -3.924321 64.485708 9.406005 5.988760 38.253639 0.000000 0.000001 -0.000001 0.000001 -0.000001 -0.000001 -5.546324 1.390172 64.784795 0.228587 -1.795849 39.151621 0.000000 0.000002 0.000011 -0.000000 -0.000001 -0.000001 -79.039195 5.702946 36.681954 135.902569 -31.224671 -2.806616 -49.365090 -9.921136 18.921516 -46.160068 -2.755997 -2.168637 -0.000002 -0.000000 -0.000000 -119.466087 -4.551983 -31.491045 140.748984 16.196276 -2.066501 -27.509453 0.368885 -1.917118 -38.303837 5.515833 10.350558 0.000000 -0.000002 0.000000 
-0.903104 34.982208 3.988834 -21.965794 -6.255795 -1.416656 7.354825 -0.243700 -0.787902 14.710906 -1.463380 -0.331661 0.000000 0.000000 0.000000 14.710902 -1.463380 -0.331661 -20.744662 2.780005 1.039819 -14.458343 1.885080 0.975407 -0.000002 -0.000000 -0.000000 -1.099281 0.158966 37.454336 0.000000 0.000000 0.000000 -53.530491 -24.931227 -14.399208 -14.700106 -29.457896 3.027295 11.402010 -2.529860 36.882687 -11.360202 -10.015422 28.397678 19.621105 23.755256 -10.341699 -0.000005 -0.000003 0.000005 0.000000 0.000001 -0.000002 -7.847235 -3.444989 -67.091254 -4.891882 2.725270 -36.316454 -0.000001 -0.000000 -0.000012 0.000000 -0.000000 -0.000000 -10.129898 -3.870934 -67.774280 -1.764578 1.724069 -28.158814 -0.000001 0.000002 0.000007 0.000001 0.000000 0.000002 -15.177601 7.295003 -70.201661 7.766212 -0.421209 -31.520053 -0.000000 0.000004 0.000005 -0.000000 0.000002 0.000002 8.959000 21.389431 -38.537136 0.000000 0.000000 0.000000 -47.400837 23.753718 -1.536036 -20.640026 27.551663 1.343288 -0.735305 9.715913 -45.379036 15.333563 1.500918 -10.491461 -10.396762 -3.067643 -10.223933 0.000001 -0.000006 0.000009 -0.000002 0.000000 0.000003 0.919908 3.496474 64.452172 1.728604 9.563460 38.865935 0.000003 -0.000004 0.000006 0.000001 0.000000 0.000001 -6.652422 -3.924329 64.485708 9.406016 5.988764 38.253649 0.000000 0.000002 -0.000002 -0.000001 0.000000 0.000001 -5.546329 1.390175 64.784775 0.228683 -1.795788 39.151631 -0.000000 0.000001 0.000012 -0.000000 -0.000000 -0.000000 -79.600418 5.393067 36.485102 136.128730 -30.948994 -2.803688 -49.502520 -9.804921 18.768595 -46.171246 -2.733987 -2.361586 -0.000001 0.000000 -0.000000 -119.718763 -4.377170 -31.034426 140.733288 16.180558 -2.019188 -27.704239 0.256775 -1.731306 -38.303209 5.237714 10.376841 0.000000 -0.000000 0.000001 
-0.911783 35.019485 3.994779 -21.427031 -6.213598 -1.460257 7.136410 -0.228374 -0.738543 14.274076 -1.394823 -0.228714 0.000000 0.000000 0.000000 14.274070 -1.394824 -0.228715 -23.605296 2.824561 1.341884 -12.221442 2.150335 0.584533 0.000000 -0.000001 -0.000000 -1.351301 0.585390 37.896652 0.000000 0.000000 0.000000 -54.106307 -24.663999 -16.084363 -14.545345 -29.884151 3.360786 11.661062 -2.738192 35.089250 -11.360199 -10.015434 28.397669 19.621091 23.755258 -10.341694 -0.000004 -0.000003 0.000005 -0.000000 -0.000000 -0.000004 -7.847215 -3.444984 -67.091254 -4.891923 2.725271 -36.316485 0.000000 -0.000000 -0.000010 0.000000 -0.000001 -0.000001 -10.129885 -3.870949 -67.774280 -1.764609 1.723924 -28.158806 -0.000001 0.000002 0.000008 0.000000 0.000001 -0.000000 -15.177584 7.294971 -70.201641 7.766214 -0.421196 -31.520053 -0.000000 0.000001 0.000003 0.000000 0.000001 0.000001 8.659238 20.554170 -38.660776 0.000000 0.000000 0.000000 -48.041119 24.002511 0.198547 -20.014606 28.209955 0.737816 -0.862523 9.271092 -44.551111 15.333566 1.500892 -10.491451 -10.396761 -3.067647 -10.223937 0.000004 0.000000 0.000008 -0.000001 0.000001 0.000002 0.919902 3.496482 64.452172 1.728649 9.563499 38.865952 0.000003 -0.000004 0.000007 0.000001 -0.000000 0.000001 -6.652423 -3.924333 64.485708 9.406016 5.988754 38.253632 0.000000 0.000001 -0.000003 -0.000001 0.000001 0.000001 -5.546332 1.390172 64.784775 0.228771 -1.795738 39.151621 0.000001 0.000003 0.000011 0.000000 -0.000000 -0.000002 -80.365802 5.147094 36.168529 136.286125 -30.311399 -2.706925 -49.319498 -9.555494 18.520328 -46.431728 -2.676226 -2.635087 0.000002 -0.000001 -0.000000 -119.930964 -4.237371 -30.586277 140.601220 16.044254 -1.985481 -27.641204 0.156359 -1.571011 -38.571075 4.945999 10.565126 0.000001 0.000000 -0.000000 
-0.908068 35.115147 3.980513 -20.862599 -6.178788 -1.539649 6.872232 -0.221952 -0.676811 13.745947 -1.331324 -0.107902 0.000000 0.000000 0.000000 13.745955 -1.331328 -0.107901 -26.243672 2.831951 1.675871 -9.903294 2.383243 0.175996 -0.000000 0.000000 0.000000 -1.519110 0.814444 38.353558 0.000000 0.000000 0.000000 -54.804325 -24.244390 -18.141054 -14.300238 -30.314975 3.746232 12.301700 -2.944044 33.435822 -11.360209 -10.015436 28.397678 19.621090 23.755268 -10.341682 -0.000006 -0.000002 0.000002 -0.000003 0.000005 -0.000002 -7.847219 -3.444991 -67.091213 -4.891936 2.725317 -36.316491 -0.000001 0.000000 -0.000008 0.000000 0.000000 -0.000001 -10.129877 -3.870979 -67.774273 -1.764617 1.723789 -28.158800 -0.000000 0.000001 0.000009 0.000000 -0.000000 0.000000 -15.177565 7.294925 -70.201654 7.766210 -0.421210 -31.520070 0.000000 0.000002 0.000004 0.000000 -0.000001 -0.000001 8.410118 19.867598 -38.774065 0.000000 0.000000 0.000000 -48.754618 24.200357 2.219750 -19.380351 28.971572 0.101943 -0.793317 8.827608 -42.972945 15.333541 1.500890 -10.491460 -10.396759 -3.067644 -10.223939 0.000004 0.000000 0.000006 -0.000001 0.000000 -0.000000 0.919907 3.496510 64.452199 1.728706 9.563536 38.865911 0.000003 -0.000006 0.000007 0.000000 0.000001 0.000002 -6.652423 -3.924327 64.485687 9.406005 5.988768 38.253649 -0.000000 0.000000 -0.000002 0.000000 -0.000000 0.000001 -5.546340 1.390175 64.784788 0.228854 -1.795665 39.151631 0.000001 0.000003 0.000011 -0.000000 0.000000 0.000002 -81.337144 4.978069 35.725800 136.339605 -29.250681 -2.500464 -48.683485 -9.133291 18.146843 -47.056640 -2.593492 -3.001900 0.000003 0.000000 -0.000000 -120.062786 -4.156400 -30.152434 140.322562 15.746390 -1.976169 -27.228132 0.066912 -1.420572 -39.185304 4.653992 10.945037 -0.000001 -0.000000 0.000000 
